<svg xmlns="http://www.w3.org/2000/svg" xmlns:xlink="http://www.w3.org/1999/xlink" width="65.325" height="72.582" viewBox="0 0 65.325 72.582">
  <defs>
    <linearGradient id="linear-gradient" x1="0.216" y1="0.128" x2="0.729" y2="0.831" gradientUnits="objectBoundingBox">
      <stop offset="0" stop-color="#f7c2ff"/>
      <stop offset="1" stop-color="#dc85e9"/>
    </linearGradient>
  </defs>
  <g id="AI_ML" data-name="AI&amp;ML" transform="translate(-30 -45.792)">
    <path id="bg_app_dev" d="M23.166-11.131c13.947-1.55,13.4,14.871,23.96,22.53S70.61,16.467,70.61,25.823c0,18.273-9.882,35.322-34.689,35.523S5.285,47.433,5.285,29.161,9.219-9.581,23.166-11.131Z" transform="translate(24.715 57.025)" opacity="0.6" fill="url(#linear-gradient)"/>
    <g id="AI" transform="translate(-17 0.661)">
      <path id="Path_1001" data-name="Path 1001" d="M7,0h9a7,7,0,0,1,7,7V37c0,3.866,1.6,5.042-2.261,5.042L7,39.764c-3.866,0-7-7.869-7-11.735V7A7,7,0,0,1,7,0Z" transform="translate(52.663 57.339)" fill="#f5f9f9"/>
      <path id="Path_996" data-name="Path 996" d="M467.952,507.979a5.9,5.9,0,0,0-2.564.6L456.81,500H450v3.989h5.158l7.41,7.41a5.918,5.918,0,0,0-.6,2.564,5.984,5.984,0,1,0,5.984-5.984Zm0,7.979a1.995,1.995,0,1,1,1.995-1.995A1.995,1.995,0,0,1,467.952,515.958Z" transform="translate(-368.085 -414.095)" fill="#894194"/>
      <path id="Path_997" data-name="Path 997" d="M467.952,325a5.974,5.974,0,0,0-5.617,3.989H450v3.989h12.336A5.974,5.974,0,1,0,467.952,325Zm0,7.979a1.995,1.995,0,1,1,1.995-1.995A1.995,1.995,0,0,1,467.952,332.979Z" transform="translate(-368.085 -253.058)" fill="#894194"/>
      <path id="Path_998" data-name="Path 998" d="M467.952,50a5.991,5.991,0,0,0-5.984,5.984,5.916,5.916,0,0,0,.694,2.739l-7.485,7.235H450v3.989h6.791l8.774-8.482A5.982,5.982,0,1,0,467.952,50Zm0,7.979a1.995,1.995,0,1,1,1.995-1.995A1.995,1.995,0,0,1,467.952,57.979Z" transform="translate(-368.085)" fill="#894194"/>
      <path id="Path_999" data-name="Path 999" d="M81.915,103.989H85.9V100H81.915a7.93,7.93,0,0,0-5.984,2.757A7.93,7.93,0,0,0,69.947,100H67.952A17.972,17.972,0,0,0,50,117.952V129.92a17.972,17.972,0,0,0,17.952,17.952h1.995a7.93,7.93,0,0,0,5.984-2.757,7.93,7.93,0,0,0,5.984,2.757H85.9v-3.989H81.915a3.994,3.994,0,0,1-3.989-3.989V107.979A3.994,3.994,0,0,1,81.915,103.989ZM69.947,143.883H67.952a13.972,13.972,0,0,1-13.8-11.968l-.16-3.989v-7.979s-.085-1.194,0-3.989a14.135,14.135,0,0,1,13.963-11.968h1.995a3.994,3.994,0,0,1,3.989,3.989v31.915A3.994,3.994,0,0,1,69.947,143.883Z" transform="translate(0 -46.011)" fill="#894194"/>
      <path id="Path_1000" data-name="Path 1000" d="M6.724-120.137l.738,2.672H9.75L6.813-127.06a.766.766,0,0,0-.782-.59H3.9a.778.778,0,0,0-.782.59L.185-117.465h2.3l.738-2.672Zm-.487-1.742H3.7l.856-3.115c.074-.31.148-.649.221-.959h.4c.044.31.133.649.207.959Zm6.8,4.413V-127.65H10.8v10.185Z" transform="translate(56.532 200.497)" fill="#894194"/>
    </g>
  </g>
</svg>
